<?xml version="1.0" encoding="UTF-8" standalone="no"?>
<svg
   xmlns:dc="http://purl.org/dc/elements/1.1/"
   xmlns:cc="http://creativecommons.org/ns#"
   xmlns:rdf="http://www.w3.org/1999/02/22-rdf-syntax-ns#"
   xmlns:svg="http://www.w3.org/2000/svg"
   xmlns="http://www.w3.org/2000/svg"
   xmlns:sodipodi="http://sodipodi.sourceforge.net/DTD/sodipodi-0.dtd"
   xmlns:inkscape="http://www.inkscape.org/namespaces/inkscape"
   version="1.1"
   id="Layer_1"
   x="0px"
   y="0px"
   viewBox="0 0 512 512"
   style="enable-background:new 0 0 512 512;"
   xml:space="preserve"
   sodipodi:docname="github.svg"
   inkscape:version="1.0.2 (e86c870879, 2021-01-15)"><metadata
   id="metadata89"><rdf:RDF><cc:Work
       rdf:about=""><dc:format>image/svg+xml</dc:format><dc:type
         rdf:resource="http://purl.org/dc/dcmitype/StillImage" /><dc:title /></cc:Work></rdf:RDF></metadata><defs
   id="defs87" /><sodipodi:namedview
   pagecolor="#ffffff"
   bordercolor="#666666"
   borderopacity="1"
   objecttolerance="10"
   gridtolerance="10"
   guidetolerance="10"
   inkscape:pageopacity="0"
   inkscape:pageshadow="2"
   inkscape:window-width="1920"
   inkscape:window-height="1053"
   id="namedview85"
   showgrid="false"
   inkscape:zoom="0.67146686"
   inkscape:cx="127.65154"
   inkscape:cy="417.61362"
   inkscape:window-x="0"
   inkscape:window-y="27"
   inkscape:window-maximized="1"
   inkscape:current-layer="g1782"
   inkscape:document-rotation="0" />






<g
   id="g26">
	<path
   style="fill:#DADDE0;"
   d="M228.6,362.73c-0.31,0.259-0.621,0.5-0.948,0.724v-0.017   C227.98,363.213,228.29,362.989,228.6,362.73z"
   id="path18" />
	<path
   style="fill:#DADDE0;"
   d="M227.652,363.437v0.017c0,0,0-0.017-0.017,0C227.635,363.454,227.635,363.454,227.652,363.437z"
   id="path20" />
	<path
   style="fill:#DADDE0;"
   d="M225.601,364.541c0.707-0.293,1.379-0.655,2.034-1.086   C226.98,363.885,226.29,364.247,225.601,364.541z"
   id="path22" />
	<path
   style="fill:#DADDE0;"
   d="M219.981,365.316c1.517,0.155,3.051,0.034,4.551-0.414c-1.086,0.345-2.207,0.5-3.327,0.5   c-0.345,0-0.69-0.017-1.017-0.052C220.119,365.351,220.05,365.351,219.981,365.316z"
   id="path24" />
</g>
<g
   id="g32">
	<path
   style="fill:#FFFFFF;"
   d="M221.205,365.402c-0.345,0-0.69-0.017-1.017-0.052C220.515,365.385,220.86,365.402,221.205,365.402z   "
   id="path28" />
	<path
   style="fill:#FFFFFF;"
   d="M219.981,365.316c0.069,0.034,0.138,0.034,0.207,0.034c-0.362-0.017-0.69-0.069-1.034-0.138   C219.429,365.265,219.705,365.299,219.981,365.316z"
   id="path30" />
</g>
<g
   id="g38">
	<path
   style="fill:#DADDE0;"
   d="M219.981,365.316c-0.276-0.017-0.552-0.052-0.827-0.103c-0.121-0.017-0.241-0.034-0.345-0.069   C219.188,365.213,219.584,365.282,219.981,365.316z"
   id="path34" />
	<path
   style="fill:#DADDE0;"
   d="M217.516,364.782c0.379,0.121,0.759,0.224,1.138,0.328c-0.155-0.034-0.31-0.069-0.465-0.103   c-0.069-0.017-0.138-0.034-0.19-0.069C217.843,364.903,217.671,364.851,217.516,364.782z"
   id="path36" />
</g>
<g
   id="g44">
	<path
   style="fill:#FFFFFF;"
   d="M218.188,365.006c0.155,0.034,0.31,0.069,0.465,0.103   C218.498,365.092,218.343,365.058,218.188,365.006z"
   id="path40" />
	<path
   style="fill:#FFFFFF;"
   d="M217.516,364.782c0.155,0.069,0.328,0.121,0.483,0.155c-0.259-0.052-0.517-0.138-0.776-0.241   C217.326,364.73,217.412,364.765,217.516,364.782z"
   id="path42" />
</g>
<path
   style="fill:#DADDE0;"
   d="M217.516,364.782c-0.103-0.017-0.19-0.052-0.293-0.086c-0.017,0.017-0.052,0-0.069-0.017v-0.034  C217.274,364.713,217.395,364.747,217.516,364.782z"
   id="path46" />



<g
   id="g54">
</g>
<g
   id="g56">
</g>
<g
   id="g58">
</g>
<g
   id="g60">
</g>
<g
   id="g62">
</g>
<g
   id="g64">
</g>
<g
   id="g66">
</g>
<g
   id="g68">
</g>
<g
   id="g70">
</g>
<g
   id="g72">
</g>
<g
   id="g74">
</g>
<g
   id="g76">
</g>
<g
   id="g78">
</g>
<g
   id="g80">
</g>
<g
   id="g82">
</g>
<g
   id="g1782"
   style="stroke-width:1"
   inkscape:export-xdpi="96"
   inkscape:export-ydpi="96"><path
     id="path1717"
     style="fill:#f9f9f9;stroke:none;stroke-width:1"
     d="M 256,0 A 256,256 0 0 0 0,256 256,256 0 0 0 188.98438,503.07227 V 429.96094 C 147.35352,427.03843 110.68681,428.34572 98.75,388.5625 90.98273,377.21932 90.774205,362.95443 66.816406,357.86523 c -16.263764,-25.97496 29.181528,-10.18895 37.210934,-1.42968 41.00706,53.40512 30.05408,47.2216 88.26954,39.33593 1.19707,-11.90091 2.65561,-23.8398 17.99023,-37.27539 C 85.423557,346.95555 64.832747,223.95313 118.51562,159.23828 c -5.02554,-36.03621 -17.47122,-65.966051 11.5586,-71.101561 17.68214,2.60601 37.53671,11.028537 61.51758,30.460941 23.1262,-8.56098 44.26976,-11.83 64.09179,-11.56641 19.82393,-0.26446 40.96109,3.00445 64.08985,11.56641 23.98088,-19.432404 43.8354,-27.854931 61.51758,-30.460941 29.02984,5.13551 16.58413,35.065351 11.55859,71.101561 53.68287,64.71485 33.09208,187.71727 -91.77149,199.25781 17.98918,10.10866 20.83399,22.99857 20.83399,38.85743 0,54.30557 1.2832,54.91431 1.2832,104.70898 -0.005,0.34773 0.0188,0.6501 0.0469,0.94727 A 256,256 0 0 0 512,256 256,256 0 0 0 256,0 Z" /><g
     id="g1728"
     style="stroke-width:1"><path
       style="fill:#dadde0;stroke-width:1"
       d="m 228.6,362.73 c -0.31,0.259 -0.621,0.5 -0.948,0.724 v -0.017 c 0.328,-0.224 0.638,-0.448 0.948,-0.707 z"
       id="path1719" /><path
       style="fill:#dadde0;stroke-width:1"
       d="m 227.652,363.437 v 0.017 c 0,0 0,-0.017 -0.017,0 0,0 0,0 0.017,-0.017 z"
       id="path1721" /><path
       style="fill:#dadde0;stroke-width:1"
       d="m 225.601,364.541 c 0.707,-0.293 1.379,-0.655 2.034,-1.086 -0.655,0.43 -1.345,0.792 -2.034,1.086 z"
       id="path1723" /><path
       style="fill:#dadde0;stroke-width:1"
       d="m 219.981,365.316 c 1.517,0.155 3.051,0.034 4.551,-0.414 -1.086,0.345 -2.207,0.5 -3.327,0.5 -0.345,0 -0.69,-0.017 -1.017,-0.052 -0.069,10e-4 -0.138,10e-4 -0.207,-0.034 z"
       id="path1726" /></g><g
     id="g1734"
     style="stroke-width:1"><path
       style="fill:#ffffff;stroke-width:1"
       d="m 221.205,365.402 c -0.345,0 -0.69,-0.017 -1.017,-0.052 0.327,0.035 0.672,0.052 1.017,0.052 z"
       id="path1730" /><path
       style="fill:#ffffff;stroke-width:1"
       d="m 219.981,365.316 c 0.069,0.034 0.138,0.034 0.207,0.034 -0.362,-0.017 -0.69,-0.069 -1.034,-0.138 0.275,0.053 0.551,0.087 0.827,0.104 z"
       id="path1732" /></g><g
     id="g1740"
     style="stroke-width:1"><path
       style="fill:#dadde0;stroke-width:1"
       d="m 219.981,365.316 c -0.276,-0.017 -0.552,-0.052 -0.827,-0.103 -0.121,-0.017 -0.241,-0.034 -0.345,-0.069 0.379,0.069 0.775,0.138 1.172,0.172 z"
       id="path1736" /><path
       style="fill:#dadde0;stroke-width:1"
       d="m 217.516,364.782 c 0.379,0.121 0.759,0.224 1.138,0.328 -0.155,-0.034 -0.31,-0.069 -0.465,-0.103 -0.069,-0.017 -0.138,-0.034 -0.19,-0.069 -0.156,-0.035 -0.328,-0.087 -0.483,-0.156 z"
       id="path1738" /></g><g
     id="g1746"
     style="stroke-width:1"><path
       style="fill:#ffffff;stroke-width:1"
       d="m 218.188,365.006 c 0.155,0.034 0.31,0.069 0.465,0.103 -0.155,-0.017 -0.31,-0.051 -0.465,-0.103 z"
       id="path1742" /><path
       style="fill:#ffffff;stroke-width:1"
       d="m 217.516,364.782 c 0.155,0.069 0.328,0.121 0.483,0.155 -0.259,-0.052 -0.517,-0.138 -0.776,-0.241 0.103,0.034 0.189,0.069 0.293,0.086 z"
       id="path1744" /></g><path
     style="fill:#dadde0;stroke-width:1"
     d="m 217.516,364.782 c -0.103,-0.017 -0.19,-0.052 -0.293,-0.086 -0.017,0.017 -0.052,0 -0.069,-0.017 v -0.034 c 0.12,0.068 0.241,0.102 0.362,0.137 z"
     id="path1748" /><g
     id="g1750"
     style="stroke-width:1" /><g
     id="g1752"
     style="stroke-width:1" /><g
     id="g1754"
     style="stroke-width:1" /><g
     id="g1756"
     style="stroke-width:1" /><g
     id="g1758"
     style="stroke-width:1" /><g
     id="g1760"
     style="stroke-width:1" /><g
     id="g1762"
     style="stroke-width:1" /><g
     id="g1764"
     style="stroke-width:1" /><g
     id="g1766"
     style="stroke-width:1" /><g
     id="g1768"
     style="stroke-width:1" /><g
     id="g1770"
     style="stroke-width:1" /><g
     id="g1772"
     style="stroke-width:1" /><g
     id="g1774"
     style="stroke-width:1" /><g
     id="g1776"
     style="stroke-width:1" /><g
     id="g1778"
     style="stroke-width:1" /><path
     id="path1780"
     style="opacity:0.25002916;fill:#000000;stroke:none;stroke-width:1"
     sodipodi:type="inkscape:offset"
     inkscape:radius="0.18273902"
     inkscape:original="M 395.86914 95.748047 C 405.0814 107.84132 396.94096 131.7634 393.10938 159.23828 C 446.79224 223.95313 426.20146 346.95555 301.33789 358.49609 C 319.32707 368.60475 322.17188 381.49466 322.17188 397.35352 C 322.17188 451.65909 323.45508 452.26783 323.45508 502.0625 C 323.45208 502.24173 323.47252 502.38528 323.47852 502.55078 C 431.97718 473.04179 511.75977 373.84903 511.75977 256 C 511.75977 239.14281 510.10927 222.67342 506.99414 206.72852 L 395.86914 95.748047 z "
     d="m 395.86914,95.566406 a 0.18275729,0.18275729 0 0 0 -0.14453,0.292969 c 4.55521,5.979795 4.83524,14.932365 3.47461,25.843745 -1.36064,10.91139 -4.35425,23.76198 -6.27149,37.50977 a 0.18275729,0.18275729 0 0 0 0.041,0.14258 c 26.79778,32.3048 35.06052,79.17277 21.03711,119.39258 -14.02341,40.2198 -50.31209,73.80152 -112.68555,79.5664 a 0.18275729,0.18275729 0 0 0 -0.0723,0.3418 c 8.96925,5.04009 14.14279,10.75558 17.08593,17.1875 2.94315,6.43192 3.6543,13.59126 3.6543,21.50977 0,54.30844 1.2832,54.91745 1.2832,104.70898 -0.003,0.19252 0.0198,0.34104 0.0254,0.49414 a 0.18275729,0.18275729 0 0 0 0.23046,0.16992 C 432.10418,473.19631 511.94336,373.9315 511.94336,256 c 0,-16.86912 -1.65219,-33.35042 -4.76953,-49.30664 a 0.18275729,0.18275729 0 0 0 -0.0508,-0.0937 L 395.99805,95.619141 a 0.18275729,0.18275729 0 0 0 -0.12891,-0.05273 z" /></g></svg>
