<?xml version="1.0" encoding="UTF-8" standalone="no"?>
<svg
   xmlns:dc="http://purl.org/dc/elements/1.1/"
   xmlns:cc="http://creativecommons.org/ns#"
   xmlns:rdf="http://www.w3.org/1999/02/22-rdf-syntax-ns#"
   xmlns:svg="http://www.w3.org/2000/svg"
   xmlns="http://www.w3.org/2000/svg"
   xmlns:sodipodi="http://sodipodi.sourceforge.net/DTD/sodipodi-0.dtd"
   xmlns:inkscape="http://www.inkscape.org/namespaces/inkscape"
   version="1.1"
   id="Layer_1"
   x="0px"
   y="0px"
   viewBox="0 0 512 512"
   style="enable-background:new 0 0 512 512;"
   xml:space="preserve"
   sodipodi:docname="instagram_mod.svg"
   inkscape:version="1.0.2 (e86c870879, 2021-01-15)"><metadata
   id="metadata55"><rdf:RDF><cc:Work
       rdf:about=""><dc:format>image/svg+xml</dc:format><dc:type
         rdf:resource="http://purl.org/dc/dcmitype/StillImage" /><dc:title /></cc:Work></rdf:RDF></metadata><defs
   id="defs53">
	
	
	
</defs><sodipodi:namedview
   pagecolor="#ffffff"
   bordercolor="#666666"
   borderopacity="1"
   objecttolerance="10"
   gridtolerance="10"
   guidetolerance="10"
   inkscape:pageopacity="0"
   inkscape:pageshadow="2"
   inkscape:window-width="1920"
   inkscape:window-height="1053"
   id="namedview51"
   showgrid="false"
   inkscape:zoom="1.2265625"
   inkscape:cx="256"
   inkscape:cy="256"
   inkscape:window-x="0"
   inkscape:window-y="27"
   inkscape:window-maximized="1"
   inkscape:current-layer="Layer_1"
   inkscape:document-rotation="0" />
<path
   id="circle2"
   style="fill:#f9f9f9"
   d="M 256 0 A 256 256 0 0 0 0 256 A 256 256 0 0 0 256 512 A 256 256 0 0 0 512 256 A 256 256 0 0 0 256 0 z M 196.77148 109.46875 L 315.22656 109.46875 C 363.36656 109.46875 402.5322 148.63148 402.5332 196.77148 L 402.5332 315.22656 C 402.5332 363.36656 363.36652 402.53125 315.22852 402.53125 L 196.77344 402.53125 C 148.63244 402.53125 109.46875 363.36456 109.46875 315.22656 L 109.46875 196.77148 C 109.46875 148.63148 148.63148 109.46875 196.77148 109.46875 z M 196.77344 138.94922 C 164.83944 138.94922 138.95117 164.83944 138.95117 196.77344 L 138.95117 315.22852 C 138.95117 347.16252 164.83944 373.05078 196.77344 373.05078 L 315.22852 373.05078 C 347.16252 373.05078 373.05078 347.16252 373.05078 315.22852 L 373.05078 196.77344 C 373.05078 164.84044 347.16252 138.94922 315.22852 138.94922 L 196.77344 138.94922 z M 331.93945 162.61133 C 341.97245 162.61133 350.10352 170.74044 350.10352 180.77344 C 350.10352 190.80344 341.97045 198.9375 331.93945 198.9375 C 321.90945 198.9375 313.77734 190.80344 313.77734 180.77344 C 313.77734 170.74244 321.90945 162.61133 331.93945 162.61133 z M 256 180.20117 C 297.794 180.20117 331.79492 214.206 331.79492 256 C 331.79492 297.794 297.794 331.79492 256 331.79492 C 214.206 331.79492 180.20117 297.791 180.20117 256 C 180.20117 214.206 214.206 180.20117 256 180.20117 z M 256 209.68359 C 230.421 209.68359 209.68359 230.42 209.68359 256 C 209.68359 281.58 230.421 302.3125 256 302.3125 C 281.579 302.3125 302.3125 281.579 302.3125 256 C 302.3125 230.419 281.579 209.68359 256 209.68359 z " />
<path
   id="path4"
   style="fill:#000000;opacity:0.25"
   d="M 374.71094 132.92188 C 374.70182 132.92303 374.69271 132.92463 374.68359 132.92578 C 374.90128 133.12863 375.11447 133.33598 375.33008 133.54102 L 374.71094 132.92188 z M 378.46094 136.67188 C 393.35895 152.33857 402.53272 173.49681 402.5332 196.77148 L 402.5332 315.22656 C 402.5332 363.36656 363.36652 402.53125 315.22852 402.53125 L 196.77344 402.53125 C 172.70294 402.53125 150.87698 392.74064 135.06836 376.93164 L 269.79297 511.62891 C 400.18097 504.70591 504.67805 400.22089 511.62305 269.83789 L 378.46094 136.67188 z M 196.77344 138.94922 C 164.83944 138.94922 138.95117 164.83944 138.95117 196.77344 L 138.95117 315.22852 C 138.95117 347.16252 164.83944 373.05078 196.77344 373.05078 L 315.22852 373.05078 C 347.16252 373.05078 373.05078 347.16252 373.05078 315.22852 L 373.05078 196.77344 C 373.05078 164.84044 347.16252 138.94922 315.22852 138.94922 L 196.77344 138.94922 z M 331.93945 162.61133 C 341.97245 162.61133 350.10352 170.74044 350.10352 180.77344 C 350.10352 190.80344 341.97045 198.9375 331.93945 198.9375 C 321.90945 198.9375 313.77734 190.80344 313.77734 180.77344 C 313.77734 170.74244 321.90945 162.61133 331.93945 162.61133 z M 256 180.20117 C 297.794 180.20117 331.79492 214.206 331.79492 256 C 331.79492 297.794 297.794 331.79492 256 331.79492 C 214.206 331.79492 180.20117 297.791 180.20117 256 C 180.20117 214.206 214.206 180.20117 256 180.20117 z M 256 209.68359 C 230.421 209.68359 209.68359 230.42 209.68359 256 C 209.68359 281.58 230.421 302.3125 256 302.3125 C 281.579 302.3125 302.3125 281.579 302.3125 256 C 302.3125 230.419 281.579 209.68359 256 209.68359 z " />
<g
   id="g10">
	
	
</g>

<g
   id="g20">
</g>
<g
   id="g22">
</g>
<g
   id="g24">
</g>
<g
   id="g26">
</g>
<g
   id="g28">
</g>
<g
   id="g30">
</g>
<g
   id="g32">
</g>
<g
   id="g34">
</g>
<g
   id="g36">
</g>
<g
   id="g38">
</g>
<g
   id="g40">
</g>
<g
   id="g42">
</g>
<g
   id="g44">
</g>
<g
   id="g46">
</g>
<g
   id="g48">
</g>
<g
   id="g890">
	
	
</g></svg>
