<?xml version="1.0" encoding="UTF-8" standalone="no"?>
<svg
   xmlns:dc="http://purl.org/dc/elements/1.1/"
   xmlns:cc="http://creativecommons.org/ns#"
   xmlns:rdf="http://www.w3.org/1999/02/22-rdf-syntax-ns#"
   xmlns:svg="http://www.w3.org/2000/svg"
   xmlns="http://www.w3.org/2000/svg"
   xmlns:sodipodi="http://sodipodi.sourceforge.net/DTD/sodipodi-0.dtd"
   xmlns:inkscape="http://www.inkscape.org/namespaces/inkscape"
   version="1.1"
   id="Layer_1"
   x="0px"
   y="0px"
   viewBox="0 0 512 512"
   style="enable-background:new 0 0 512 512;"
   xml:space="preserve"
   sodipodi:docname="telegram_mod.svg"
   inkscape:version="1.0.2 (e86c870879, 2021-01-15)"><metadata
   id="metadata89"><rdf:RDF><cc:Work
       rdf:about=""><dc:format>image/svg+xml</dc:format><dc:type
         rdf:resource="http://purl.org/dc/dcmitype/StillImage" /><dc:title /></cc:Work></rdf:RDF></metadata><defs
   id="defs87" /><sodipodi:namedview
   pagecolor="#ffffff"
   bordercolor="#666666"
   borderopacity="1"
   objecttolerance="10"
   gridtolerance="10"
   guidetolerance="10"
   inkscape:pageopacity="0"
   inkscape:pageshadow="2"
   inkscape:window-width="1920"
   inkscape:window-height="1053"
   id="namedview85"
   showgrid="false"
   inkscape:zoom="1.7220607"
   inkscape:cx="328.8864"
   inkscape:cy="298.99796"
   inkscape:window-x="0"
   inkscape:window-y="27"
   inkscape:window-maximized="1"
   inkscape:current-layer="Layer_1"
   inkscape:document-rotation="0" />
<path
   id="circle2"
   style="fill:#f9f9f9"
   d="M 256 0 A 256 256 0 0 0 0 256 A 256 256 0 0 0 256 512 A 256 256 0 0 0 512 256 A 256 256 0 0 0 256 0 z M 388.62891 132.55469 C 393.15582 132.50838 397.31211 134.75684 399.87109 138.25391 C 399.87499 138.25912 399.87892 138.26431 399.88281 138.26953 C 400.05248 138.49738 400.21414 138.7298 400.36914 138.9668 L 400.36914 138.96875 C 400.48984 139.17517 400.61171 139.36319 400.73242 139.55273 C 400.83542 139.75973 400.95655 139.96725 401.06055 140.15625 C 401.16355 140.36325 401.26752 140.57034 401.35352 140.77734 C 401.45652 141.00134 401.54291 141.20764 401.62891 141.43164 C 401.69791 141.62164 401.78452 141.82773 401.85352 142.05273 C 402.07752 142.72473 402.24814 143.41467 402.36914 144.13867 C 402.43814 144.58667 402.49139 145.03558 402.52539 145.51758 C 402.57739 146.68958 402.49142 147.93045 402.23242 149.18945 L 356.46289 367.9707 C 354.32489 378.2277 342.27317 382.84858 333.82617 376.64258 L 264.73242 325.92578 L 229.51367 361.88672 C 229.22067 362.17972 228.91061 362.47147 228.59961 362.73047 C 228.28961 362.98947 227.97934 363.2135 227.65234 363.4375 L 227.63477 363.45508 C 226.97977 363.88608 226.30856 364.24802 225.60156 364.54102 C 225.23956 364.67902 224.89325 364.81634 224.53125 364.90234 C 223.03125 365.35034 221.49747 365.47141 219.98047 365.31641 C 219.58447 365.28241 219.18759 365.21353 218.80859 365.14453 C 218.75659 365.14453 218.7063 365.12833 218.6543 365.11133 C 218.2753 365.00833 217.89463 364.9042 217.51562 364.7832 C 217.39462 364.7492 217.2753 364.71353 217.1543 364.64453 L 217.15234 364.57227 C 216.82913 364.44085 216.54854 364.18738 216.41992 363.76953 L 216.34375 363.43555 L 216.34375 364.33398 C 216.60275 364.45498 216.87634 364.55853 217.15234 364.64453 L 217.15234 364.67773 C 213.91208 363.52244 211.1718 360.93624 210 357.21289 L 184.58984 276.55078 L 116.47852 256.43359 C 107.53152 253.79559 107.01455 241.34912 115.68555 237.95312 L 383.7168 133.51953 C 385.36305 132.87728 387.01894 132.57116 388.62891 132.55469 z " />
<path
   style="fill:#000000;opacity:0.25"
   d="m 399.79883,138.13867 c 2.23232,2.97547 3.30652,6.87429 2.43359,11.05078 L 356.46289,367.9707 c -2.138,10.257 -14.18972,14.87788 -22.63672,8.67188 l -69.09375,-50.7168 -35.21875,35.96094 c -4.63847,4.72916 -11.7929,4.46988 -16.20508,0.50195 L 346.45898,495.53906 C 443.19698,458.98806 512,365.535 512,256 c 0,-1.981 -0.0312,-3.95583 -0.0762,-5.92383 z"
   id="path4" />



<g
   id="g16">
	
	
</g>
<g
   id="g26">
	<path
   style="fill:#DADDE0;"
   d="M228.6,362.73c-0.31,0.259-0.621,0.5-0.948,0.724v-0.017   C227.98,363.213,228.29,362.989,228.6,362.73z"
   id="path18" />
	<path
   style="fill:#DADDE0;"
   d="M227.652,363.437v0.017c0,0,0-0.017-0.017,0C227.635,363.454,227.635,363.454,227.652,363.437z"
   id="path20" />
	<path
   style="fill:#DADDE0;"
   d="M225.601,364.541c0.707-0.293,1.379-0.655,2.034-1.086   C226.98,363.885,226.29,364.247,225.601,364.541z"
   id="path22" />
	<path
   style="fill:#DADDE0;"
   d="M219.981,365.316c1.517,0.155,3.051,0.034,4.551-0.414c-1.086,0.345-2.207,0.5-3.327,0.5   c-0.345,0-0.69-0.017-1.017-0.052C220.119,365.351,220.05,365.351,219.981,365.316z"
   id="path24" />
</g>
<g
   id="g32">
	<path
   style="fill:#FFFFFF;"
   d="M221.205,365.402c-0.345,0-0.69-0.017-1.017-0.052C220.515,365.385,220.86,365.402,221.205,365.402z   "
   id="path28" />
	<path
   style="fill:#FFFFFF;"
   d="M219.981,365.316c0.069,0.034,0.138,0.034,0.207,0.034c-0.362-0.017-0.69-0.069-1.034-0.138   C219.429,365.265,219.705,365.299,219.981,365.316z"
   id="path30" />
</g>
<g
   id="g38">
	<path
   style="fill:#DADDE0;"
   d="M219.981,365.316c-0.276-0.017-0.552-0.052-0.827-0.103c-0.121-0.017-0.241-0.034-0.345-0.069   C219.188,365.213,219.584,365.282,219.981,365.316z"
   id="path34" />
	<path
   style="fill:#DADDE0;"
   d="M217.516,364.782c0.379,0.121,0.759,0.224,1.138,0.328c-0.155-0.034-0.31-0.069-0.465-0.103   c-0.069-0.017-0.138-0.034-0.19-0.069C217.843,364.903,217.671,364.851,217.516,364.782z"
   id="path36" />
</g>
<g
   id="g44">
	<path
   style="fill:#FFFFFF;"
   d="M218.188,365.006c0.155,0.034,0.31,0.069,0.465,0.103   C218.498,365.092,218.343,365.058,218.188,365.006z"
   id="path40" />
	<path
   style="fill:#FFFFFF;"
   d="M217.516,364.782c0.155,0.069,0.328,0.121,0.483,0.155c-0.259-0.052-0.517-0.138-0.776-0.241   C217.326,364.73,217.412,364.765,217.516,364.782z"
   id="path42" />
</g>
<path
   style="fill:#DADDE0;"
   d="M217.516,364.782c-0.103-0.017-0.19-0.052-0.293-0.086c-0.017,0.017-0.052,0-0.069-0.017v-0.034  C217.274,364.713,217.395,364.747,217.516,364.782z"
   id="path46" />


<path
   style="fill:#e6e6e6;opacity:1"
   d="m 350.118,182.065 -124.5,110.089 c -1.241,1.103 -2.034,2.62 -2.207,4.275 l -4.474,67.1 c -0.172,1.396 -2.103,1.586 -2.517,0.241 l -20.04,-88.045 c -0.914,-2.913 0.276,-6.068 2.862,-7.671 l 147.015,-91.177 c 3.379,-2.104 6.844,2.551 3.861,5.188 z"
   id="path52" />
<g
   id="g54">
</g>
<g
   id="g56">
</g>
<g
   id="g58">
</g>
<g
   id="g60">
</g>
<g
   id="g62">
</g>
<g
   id="g64">
</g>
<g
   id="g66">
</g>
<g
   id="g68">
</g>
<g
   id="g70">
</g>
<g
   id="g72">
</g>
<g
   id="g74">
</g>
<g
   id="g76">
</g>
<g
   id="g78">
</g>
<g
   id="g80">
</g>
<g
   id="g82">
</g>
</svg>
