<?xml version="1.0" encoding="UTF-8" standalone="no"?>
<svg
   xmlns:dc="http://purl.org/dc/elements/1.1/"
   xmlns:cc="http://creativecommons.org/ns#"
   xmlns:rdf="http://www.w3.org/1999/02/22-rdf-syntax-ns#"
   xmlns:svg="http://www.w3.org/2000/svg"
   xmlns="http://www.w3.org/2000/svg"
   xmlns:sodipodi="http://sodipodi.sourceforge.net/DTD/sodipodi-0.dtd"
   xmlns:inkscape="http://www.inkscape.org/namespaces/inkscape"
   version="1.1"
   id="Layer_1"
   x="0px"
   y="0px"
   viewBox="0 0 512 512"
   style="enable-background:new 0 0 512 512;"
   xml:space="preserve"
   sodipodi:docname="twitter_mod.svg"
   inkscape:version="1.0.2 (e86c870879, 2021-01-15)"><metadata
   id="metadata45"><rdf:RDF><cc:Work
       rdf:about=""><dc:format>image/svg+xml</dc:format><dc:type
         rdf:resource="http://purl.org/dc/dcmitype/StillImage" /><dc:title /></cc:Work></rdf:RDF></metadata><defs
   id="defs43" /><sodipodi:namedview
   pagecolor="#ffffff"
   bordercolor="#666666"
   borderopacity="1"
   objecttolerance="10"
   gridtolerance="10"
   guidetolerance="10"
   inkscape:pageopacity="0"
   inkscape:pageshadow="2"
   inkscape:window-width="1920"
   inkscape:window-height="1053"
   id="namedview41"
   showgrid="false"
   inkscape:zoom="1.2469479"
   inkscape:cx="253.51182"
   inkscape:cy="257.82565"
   inkscape:window-x="0"
   inkscape:window-y="27"
   inkscape:window-maximized="1"
   inkscape:current-layer="Layer_1"
   inkscape:document-rotation="0" />
<path
   id="circle2"
   style="fill:#f9f9f9"
   d="M 256 0 A 256 256 0 0 0 0 256 A 256 256 0 0 0 256 512 A 256 256 0 0 0 512 256 A 256 256 0 0 0 256 0 z M 309.42383 134.11328 C 324.83883 134.11328 339.68652 139.71662 351.22852 149.89062 C 352.74352 151.22262 354.66163 151.95508 356.64062 151.95508 C 357.29362 151.95508 357.94036 151.8768 358.56836 151.7168 C 369.41836 148.9708 379.81289 144.67812 389.46289 138.95312 C 392.07589 137.40313 395.22092 139.90973 394.29492 142.80273 C 391.05392 152.94073 385.30806 162.02416 377.66406 169.28516 C 384.60106 167.63716 391.35809 165.3597 397.87109 162.4707 C 400.89509 161.1297 403.79508 164.57817 401.95508 167.32617 C 394.99308 177.74017 386.53998 187.01644 376.83398 194.89844 C 374.27498 196.97744 372.81055 200.02658 372.81055 203.26758 L 372.81055 204.23242 C 372.81055 224.41942 368.8887 245.57072 361.4707 265.38672 C 353.6867 286.18072 342.46247 304.97962 328.10547 321.26562 C 312.69547 338.74762 294.36414 352.4828 273.61914 362.0918 C 250.99114 372.5768 225.93634 377.89062 199.15234 377.89062 C 168.55534 377.89062 138.42763 369.76653 112.01562 354.39453 C 110.09363 353.27753 109.05414 351.01023 109.61914 348.86523 C 110.18914 346.68423 112.09461 345.21484 114.34961 345.21484 L 121.6543 345.21875 C 145.0933 345.21875 167.61803 338.37167 186.95703 325.38867 C 163.65303 321.60667 144.18155 304.93636 136.93555 282.31836 C 136.17155 279.93236 138.24013 277.59745 140.70312 278.06445 C 144.22713 278.74145 147.81261 279.08008 151.34961 279.08008 C 151.79961 279.08008 152.24922 279.07641 152.69922 279.06641 C 130.38222 268.87141 115.48492 246.2282 115.79492 220.7832 C 115.82592 218.2822 118.51317 216.71959 120.70117 217.93359 C 125.22217 220.44559 130.08823 222.32262 135.11523 223.51562 C 123.16223 211.74663 116.2793 195.60356 116.2793 178.47656 C 116.2793 167.29956 119.23603 156.31694 124.83203 146.71094 C 125.99403 144.71994 128.79305 144.49811 130.24805 146.28711 C 158.83005 181.35211 199.27119 202.957 244.11719 207.125 C 244.19119 207.132 244.2698 207.13477 244.3418 207.13477 C 245.0028 207.13477 245.63594 206.84575 246.08594 206.34375 C 246.34094 206.05775 246.7513 205.44827 246.6543 204.57227 C 245.7883 196.95627 246.29039 189.12659 248.15039 181.30859 C 253.11239 160.45959 268.9212 143.55808 289.4082 137.20508 C 296.0192 135.15408 302.75183 134.11328 309.42383 134.11328 z " />
<path
   id="path4"
   style="fill:#000000;opacity:0.25"
   d="M 394.18945 140.50195 C 394.48376 141.18059 394.56006 141.9744 394.29492 142.80273 C 391.05392 152.94073 385.30806 162.02416 377.66406 169.28516 C 384.60106 167.63716 391.35809 165.3597 397.87109 162.4707 C 400.89509 161.1297 403.79508 164.57817 401.95508 167.32617 C 394.99308 177.74017 386.53998 187.01644 376.83398 194.89844 C 374.27498 196.97744 372.81055 200.02658 372.81055 203.26758 L 372.81055 204.23242 C 372.81055 224.41942 368.8887 245.57072 361.4707 265.38672 C 353.6867 286.18072 342.46247 304.97962 328.10547 321.26562 C 312.69547 338.74762 294.36414 352.4828 273.61914 362.0918 C 250.99114 372.5768 225.93634 377.89062 199.15234 377.89062 C 168.55534 377.89062 138.42763 369.76653 112.01562 354.39453 C 111.746 354.23784 111.4985 354.05395 111.26562 353.85547 L 269.2832 511.66016 C 403.7392 504.78716 510.7817 394.1662 511.9707 258.2832 L 394.18945 140.50195 z " />


<g
   id="g10">
</g>
<g
   id="g12">
</g>
<g
   id="g14">
</g>
<g
   id="g16">
</g>
<g
   id="g18">
</g>
<g
   id="g20">
</g>
<g
   id="g22">
</g>
<g
   id="g24">
</g>
<g
   id="g26">
</g>
<g
   id="g28">
</g>
<g
   id="g30">
</g>
<g
   id="g32">
</g>
<g
   id="g34">
</g>
<g
   id="g36">
</g>
<g
   id="g38">
</g>
</svg>
