<?xml version="1.0" encoding="UTF-8" standalone="no"?>
<svg
   xmlns:dc="http://purl.org/dc/elements/1.1/"
   xmlns:cc="http://creativecommons.org/ns#"
   xmlns:rdf="http://www.w3.org/1999/02/22-rdf-syntax-ns#"
   xmlns:svg="http://www.w3.org/2000/svg"
   xmlns="http://www.w3.org/2000/svg"
   xmlns:sodipodi="http://sodipodi.sourceforge.net/DTD/sodipodi-0.dtd"
   xmlns:inkscape="http://www.inkscape.org/namespaces/inkscape"
   width="64"
   height="64"
   viewBox="0 0 16.933334 16.933334"
   version="1.1"
   id="svg8"
   inkscape:version="1.0.1 (3bc2e813f5, 2020-09-07, custom)"
   sodipodi:docname="yitchwarePlainWhite.svg">
  <defs
     id="defs2" />
  <sodipodi:namedview
     id="base"
     pagecolor="#ffffff"
     bordercolor="#666666"
     borderopacity="1.0"
     inkscape:pageopacity="0.0"
     inkscape:pageshadow="2"
     inkscape:zoom="7.226693"
     inkscape:cx="-1.5618909"
     inkscape:cy="48.829777"
     inkscape:document-units="px"
     inkscape:current-layer="layer1"
     inkscape:document-rotation="0"
     showgrid="false"
     units="px"
     showborder="true"
     objecttolerance="15.2"
     inkscape:showpageshadow="false"
     inkscape:pagecheckerboard="true"
     inkscape:window-width="1920"
     inkscape:window-height="1053"
     inkscape:window-x="0"
     inkscape:window-y="27"
     inkscape:window-maximized="1" />
  <metadata
     id="metadata5">
    <rdf:RDF>
      <cc:Work
         rdf:about="">
        <dc:format>image/svg+xml</dc:format>
        <dc:type
           rdf:resource="http://purl.org/dc/dcmitype/StillImage" />
        <dc:title></dc:title>
        <dc:creator>
          <cc:Agent>
            <dc:title>Haji Ibrahim</dc:title>
          </cc:Agent>
        </dc:creator>
        <dc:subject>
          <rdf:Bag>
            <rdf:li>yitchware</rdf:li>
          </rdf:Bag>
        </dc:subject>
        <dc:publisher>
          <cc:Agent>
            <dc:title>Yitchware Graphics</dc:title>
          </cc:Agent>
        </dc:publisher>
        <cc:license
           rdf:resource="" />
      </cc:Work>
    </rdf:RDF>
  </metadata>
  <g
     inkscape:label="Layer 1"
     inkscape:groupmode="layer"
     id="layer1">
    <path
       d="m 2.520567,1.7028644 0.4242,0.93802 v 0.83768 l -1.05118,0.56217 -0.61331,-0.87031 0.28943,1.25434 v 0.54906 h 0.84053 l 1.62127,-0.98311 v -1.05979 c 1.41893,0.40592 1.98903,1.23359 2.39669,2.08462 h -0.98158 l -0.4851,-0.53681 0.16205,0.89152 c 3.94534,1.22845 3.04297,5.9027506 0.0536,8.0122306 0.73478,-1.2815 1.34683,-2.8515 1.11098,-5.8154506 l -2.37847,-1.07964 -0.45175,-0.86207 0.0813,1.13024 1.88473,1.28249 c -0.0259,4.3171706 -2.18665,6.9419006 -3.86641,7.0004506 2.52409,0.77642 5.00066,-0.90755 6.90914,-3.15978 1.90848,2.25223 4.38506,3.9362 6.90915,3.15978 -1.67976,-0.0585 -3.84048,-2.68328 -3.86642,-7.0004506 l 1.88481,-1.28249 0.0812,-1.13024 -0.45168,0.86207 -2.37847,1.07964 c -0.23586,2.9639506 0.37612,4.5339506 1.1109,5.8154506 -2.98939,-2.10948 -3.8917,-6.7837806 0.0536,-8.0122306 l 0.16198,-0.89152 -0.4851,0.53681 h -0.98159 c 0.40766,-0.85103 0.97777,-1.6787 2.39669,-2.08462 v 1.05979 l 1.62128,0.98311 h 0.84053 v -0.54906 l 0.28949,-1.25434 -0.61337,0.87031 -1.05119,-0.56217 v -0.83768 l 0.4242,-0.93802 c -3.70629,0.41031 -4.65412,2.32749 -5.94606,4.05674 -1.29194,-1.72925 -2.23976,-3.64643 -5.94606,-4.05674 z"
       style="display:inline;fill:#f9f9f9;stroke:none;stroke-width:0.669696;stroke-linecap:round;stroke-linejoin:round;stroke-miterlimit:4;stroke-dasharray:none;stroke-opacity:1"
       id="path891-6" />
  </g>
</svg>
